<?xml version="1.0" encoding="utf-8"?>
<!-- Generator: Adobe Illustrator 19.0.0, SVG Export Plug-In . SVG Version: 6.00 Build 0)  -->
<svg version="1.1" id="Group_1_1_" xmlns="http://www.w3.org/2000/svg" xmlns:xlink="http://www.w3.org/1999/xlink" x="0px" y="0px"
	 viewBox="-249 411 500 180" style="enable-background:new -249 411 500 180;" xml:space="preserve">
<style type="text/css">
	.st0{fill:#FFFFFF;}
	.st1{fill:#F2781C;}
</style>
<g>
	<g id="XMLID_1_">
		<g>
			<path class="st0" d="M245.9,425.1c0,53.9,0,107.8,0,161.7c-164.7,0-329.4,0-494.1,0c0-53.9,0-107.8,0-161.7
				C-83.6,425.1,81.1,425.1,245.9,425.1z M227.8,542.2c11.6-14.1,18.3-30.1,17.1-48.7c-0.3-5.8-1.1-11.4-3.1-16.9
				c-4.2-11.4-10.4-21.6-18-31.1c-2.3-2.9-2-2.7-4.8-0.5c-0.9,0.7-0.9,1.2-0.3,2.1c2.7,3.8,4.9,7.9,6.5,12.2
				c3.5,9.2,4.7,18.7,4.6,28.7c0.1,8.5-0.9,17.2-3,25.8c-3.2,13.4-8.5,25.9-16.9,37c-2.1,2.8-4.6,5.4-7,8.1c-0.9,1-1,1.4,0,2.4
				c0.4,0.4,0.9,0.8,1.3,1.3c0.6,0.8,1.3,0.8,2,0.2C214.1,556.4,221.5,549.8,227.8,542.2z M-9.6,448.1c1.7-1.8,1.7-1.9-0.1-3.7
				c-0.5-0.4-1-0.8-1.5-1.3c-0.5,0.3-0.9,0.4-1.2,0.6c-8.3,6.7-16.3,13.8-22.9,22.3c-9.2,11.9-15.2,25.1-15.7,40.4
				c-0.3,10.7,1.4,20.9,6.1,30.6c4.1,8.5,9.1,16.5,15.1,23.9c2.4,2.9,1.8,2.8,4.7,0.5c0.9-0.7,0.9-1.3,0.3-2.1
				c-1-1.4-1.9-2.8-2.7-4.3c-5.7-10-7.9-20.9-8.3-32.3c-0.4-10,0.5-19.9,2.8-29.6C-29,476.2-21.8,460.9-9.6,448.1z M-50.2,484
				c0.5-2,0.1-2.5-2-2.4c-3.4,0.2-6.8,0.4-10.2,0.4c-4.3,0-8.6-0.4-12.8-2.1c-3.6-1.5-7.6-1.7-11.4-1c-5.1,0.9-9.8,3.1-14.5,5.2
				c-2.7,1.2-5.4,2.6-7.5,4.9c-5.8,6.3-8.2,13.7-7.4,22.1c0.3,3.9,1.7,7.4,4.8,10c4.3,3.5,9.3,4.8,14.7,4.6c0.5,0,1,0,1.5,0
				c-0.6,0.8-1.2,1.3-1.9,1.7c-3,1.9-5.9,3.8-8.9,5.6c-1,0.6-1.5,1.4-1.7,2.5c-0.5,2.3,0.3,4.3,1.6,6.1c0.5,0.7,1.1,1.3,1.8,2.1
				c-0.6,0.2-1,0.3-1.5,0.5c-3.3,1.3-6.8,2.4-10,3.9c-5.1,2.2-9.5,5.3-12.6,10.1c-2.1,3.3-3.1,6.8-2.4,10.7
				c1.1,5.6,4.6,9.4,9.6,11.7c5.5,2.6,11.4,3.4,17.5,3.6c8.5,0.2,16.7-1,24.4-5c4.3-2.3,8.1-5.1,10.5-9.5c3.2-5.6,3.8-14.4-2.4-20.2
				c-2.6-2.4-5.4-4.6-8.2-6.8c-3.3-2.6-6.8-5-10.2-7.5c-0.8-0.6-1.5-1.5-2.1-2.4c-1-1.6-0.9-2.8,0.3-4.3c1.2-1.6,2.8-2.5,4.6-3.3
				c3.2-1.4,6.5-2.7,9.7-4.1c5.3-2.2,9.3-5.8,11.7-11.1c2.4-5.2,3.7-10.6,2.8-16.4c-0.2-1.5-0.7-2.9-1.1-4.4c0.3,0,0.5-0.1,0.8-0.1
				c3.3,0.1,6.5,0.3,9.8,0.4c0.9,0.1,1.5,0.1,1.6-1.1C-51,487-50.5,485.5-50.2,484z M-130.9,500.7c-0.1-1.3-0.1-2.9-0.3-4.5
				c-0.5-4.1-1.8-8-4.6-11.1c-4.1-4.5-9.4-6.4-15.3-6.7c-8.7-0.4-16.6,2.2-23.9,6.8c-7.3,4.6-12.8,10.6-15.8,18.8
				c-1.8,5-2.8,10.2-3.5,15.5c-0.6,4.8-0.7,9.6,0.5,14.3c1.8,7.1,6,11.9,13.3,13.5c6.4,1.4,12.9,1,19.1-1.3
				c5.8-2.1,10.8-5.5,15.7-9.1c3.1-2.3,5.6-5.1,7.5-8.5C-133.4,520-131.2,510.8-130.9,500.7z M-203.9,445.5c0.1-0.7,0.1-1.1-0.5-1.5
				c-0.6-0.4-0.9-0.9-1.9-0.6c-8.5,3-17.3,5-26.3,6.1c-0.8,0.1-1.3,0.4-1.3,1.3c-0.1,0.5-0.1,1-0.2,1.5c-0.2,1,0.2,1.4,1.3,1.4
				c2.3,0,4.6,0,6.8,0.2c2.6,0.2,3.6,1.5,3.2,4c-0.6,4.2-1.2,8.4-2.1,12.5c-3.9,18.5-8,36.9-11.9,55.4c-1,4.8-1.5,9.6-2.3,14.4
				c0.1,0,0.2,0,0.2,0c0.1,0.8,0.1,1.7,0.3,2.5c0.7,4.5,3.3,6.3,7.6,5c2.4-0.7,4.8-1.7,7-3.1c5-3.1,9.9-6.5,14.8-9.8
				c2.2-1.5,2.2-1.5,0.9-3.8c-0.6-1-1-1-2-0.4c-2.5,1.7-5.1,3.3-7.7,4.8c-1,0.6-2.3,1.3-3.5,0.5c-1.2-0.9-1.1-2.3-0.9-3.6
				c0.5-3,0.9-6.1,1.6-9.1c3-14.1,5.9-28.3,9-42.4C-209.3,469-206.6,457.2-203.9,445.5z"/>
			<path d="M245,493.4c1.2,18.7-5.5,34.6-17.1,48.7c-6.3,7.7-13.8,14.3-21.5,20.5c-0.8,0.6-1.4,0.6-2-0.2c-0.4-0.5-0.8-0.9-1.3-1.3
				c-1-1-0.9-1.4,0-2.4c2.4-2.7,4.8-5.3,7-8.1c8.4-11,13.7-23.5,16.9-37c2-8.6,3-17.2,3-25.8c0.1-10-1.1-19.5-4.6-28.7
				c-1.6-4.3-3.8-8.5-6.5-12.2c-0.6-0.9-0.6-1.5,0.3-2.1c2.8-2.2,2.5-2.4,4.8,0.5c7.6,9.4,13.8,19.7,18,31.1
				C243.8,482,244.6,487.7,245,493.4z"/>
			<path d="M-9.8,444.5c1.8,1.8,1.8,1.8,0.1,3.7C-21.8,460.9-29,476.2-33,493.2c-2.3,9.7-3.2,19.6-2.8,29.6
				c0.4,11.3,2.7,22.3,8.3,32.3c0.8,1.5,1.7,2.9,2.7,4.3c0.6,0.9,0.6,1.5-0.3,2.1c-2.9,2.2-2.3,2.4-4.7-0.5
				c-6-7.4-10.9-15.4-15.1-23.9c-4.7-9.7-6.5-19.9-6.1-30.6c0.5-15.3,6.5-28.5,15.7-40.4c6.6-8.5,14.6-15.6,22.9-22.3
				c0.3-0.2,0.7-0.4,1.2-0.6C-10.7,443.6-10.2,444-9.8,444.5z"/>
			<path d="M-52.2,481.6c2-0.1,2.4,0.3,2,2.4c-0.3,1.5-0.8,3-1,4.6c-0.2,1.1-0.7,1.1-1.6,1.1c-3.3-0.2-6.5-0.3-9.8-0.4
				c-0.2,0-0.5,0-0.8,0.1c0.4,1.5,0.8,2.9,1.1,4.4c0.9,5.8-0.4,11.2-2.8,16.4c-2.5,5.3-6.4,8.9-11.7,11.1c-3.3,1.4-6.5,2.7-9.7,4.1
				c-1.8,0.8-3.4,1.7-4.6,3.3c-1.1,1.5-1.3,2.7-0.3,4.3c0.6,0.9,1.3,1.8,2.1,2.4c3.4,2.6,6.9,5,10.2,7.5c2.8,2.2,5.6,4.4,8.2,6.8
				c6.2,5.8,5.6,14.6,2.4,20.2c-2.4,4.4-6.2,7.2-10.5,9.5c-7.6,4-15.8,5.3-24.4,5c-6-0.2-12-1-17.5-3.6c-5.1-2.4-8.6-6.1-9.6-11.7
				c-0.7-3.9,0.3-7.4,2.4-10.7c3.1-4.8,7.5-7.9,12.6-10.1c3.3-1.4,6.7-2.6,10-3.9c0.5-0.2,0.9-0.3,1.5-0.5c-0.7-0.8-1.3-1.4-1.8-2.1
				c-1.3-1.8-2.1-3.8-1.6-6.1c0.2-1.1,0.7-1.9,1.7-2.5c3-1.8,6-3.7,8.9-5.6c0.7-0.4,1.3-0.9,1.9-1.7c-0.5,0-1,0-1.5,0
				c-5.4,0.1-10.5-1.1-14.7-4.6c-3.1-2.6-4.4-6.1-4.8-10c-0.7-8.4,1.7-15.9,7.4-22.1c2.1-2.3,4.7-3.6,7.5-4.9
				c4.7-2.1,9.4-4.3,14.5-5.2c3.9-0.7,7.8-0.6,11.4,1c4.1,1.8,8.4,2.1,12.8,2.1C-58.9,482-55.5,481.8-52.2,481.6z M-81.1,514.5
				c3.5-6.4,4.7-13.4,3.9-20.6c-0.8-8.1-7.9-10.3-13.2-8.8c-3.5,1-5.7,3.5-7.4,6.6c-2.6,5-3.8,10.4-3.9,16c0.1,1.4,0.2,2.7,0.3,4
				c0.8,6.5,6.1,10.3,12.5,8.9C-85.3,520-82.8,517.7-81.1,514.5z M-80.9,568.2c0.9-4.1-0.4-7.6-3.6-10c-5.2-4-10.6-7.7-15.9-11.5
				c-0.2-0.2-0.7-0.2-1-0.1c-3.5,1.9-7.2,3.5-10.5,5.8c-4.2,2.9-6.5,7-6.5,13c-0.1,4.8,2.7,8.5,7.3,11c3.3,1.8,6.8,2.6,10.6,2.8
				c4.5,0.2,9-0.3,13-2.6C-84.2,574.6-81.8,572-80.9,568.2z"/>
			<path class="st0" d="M-77.2,493.9c0.7,7.2-0.4,14.2-3.9,20.6c-1.7,3.1-4.1,5.4-7.8,6.2c-6.4,1.3-11.7-2.4-12.5-8.9
				c-0.2-1.4-0.2-2.7-0.3-4c0.1-5.6,1.3-11,3.9-16c1.6-3.1,3.9-5.6,7.4-6.6C-85.1,483.6-78,485.8-77.2,493.9z"/>
			<path class="st0" d="M-84.4,558.2c3.2,2.5,4.5,5.9,3.6,10c-0.9,3.8-3.3,6.4-6.6,8.3c-4,2.3-8.4,2.8-13,2.6
				c-3.7-0.2-7.3-1-10.6-2.8c-4.7-2.5-7.4-6.3-7.3-11c0-5.9,2.3-10.1,6.5-13c3.3-2.2,6.9-3.9,10.5-5.8c0.2-0.1,0.7-0.1,1,0.1
				C-95,550.5-89.6,554.2-84.4,558.2z"/>
			<path d="M-131.2,496.3c0.2,1.6,0.2,3.2,0.3,4.5c-0.4,10.1-2.5,19.3-7.3,27.9c-1.9,3.4-4.3,6.2-7.5,8.5c-4.9,3.6-10,7-15.7,9.1
				c-6.2,2.2-12.7,2.7-19.1,1.3c-7.3-1.6-11.5-6.4-13.3-13.5c-1.2-4.7-1.1-9.5-0.5-14.3c0.7-5.3,1.6-10.5,3.5-15.5
				c3-8.2,8.5-14.3,15.8-18.8c7.3-4.6,15.2-7.2,23.9-6.8c5.9,0.3,11.2,2.2,15.3,6.7C-132.9,488.3-131.7,492.1-131.2,496.3z
				 M-154.1,532.5c5.3-11.3,7.3-23.3,6.6-35.8c-0.2-3-1-6-3.1-8.4c-4.1-4.5-10.9-5-15.9-1.4c-2.8,2-4.6,4.9-5.9,8
				c-3.9,9.7-5.8,19.8-6.3,31.1c0.2,1.5,0.3,3.9,0.8,6.2c0.9,4.1,3.1,7.3,7.3,8.5c4.6,1.3,9.1,0.8,12.6-2.8
				C-156.4,536.5-155.1,534.5-154.1,532.5z"/>
			<path class="st0" d="M-147.5,496.8c0.6,12.4-1.3,24.4-6.6,35.8c-0.9,2-2.3,3.9-3.9,5.5c-3.5,3.5-7.9,4-12.6,2.8
				c-4.3-1.2-6.5-4.4-7.3-8.5c-0.5-2.3-0.6-4.7-0.8-6.2c0.5-11.3,2.4-21.4,6.3-31.1c1.3-3.1,3-6,5.9-8c5-3.6,11.8-3,15.9,1.4
				C-148.4,490.7-147.6,493.7-147.5,496.8z"/>
			<path d="M-204.3,443.9c0.6,0.4,0.6,0.9,0.5,1.5c-2.7,11.7-5.4,23.5-8,35.3c-3.1,14.1-6.1,28.3-9,42.4c-0.6,3-1.1,6-1.6,9.1
				c-0.2,1.3-0.3,2.8,0.9,3.6c1.2,0.8,2.4,0.1,3.5-0.5c2.6-1.5,5.2-3.1,7.7-4.8c0.9-0.6,1.4-0.6,2,0.4c1.3,2.3,1.4,2.3-0.9,3.8
				c-4.9,3.3-9.8,6.7-14.8,9.8c-2.1,1.3-4.6,2.4-7,3.1c-4.4,1.3-6.9-0.5-7.6-5c-0.1-0.8-0.2-1.7-0.3-2.5c-0.1,0-0.1,0-0.2,0
				c0.8-4.8,1.3-9.7,2.3-14.4c3.9-18.5,8-36.9,11.9-55.4c0.9-4.1,1.5-8.3,2.1-12.5c0.4-2.6-0.7-3.8-3.2-4c-2.3-0.2-4.6-0.2-6.8-0.2
				c-1.1,0-1.5-0.4-1.3-1.4c0.1-0.5,0.2-1,0.2-1.5c0.1-0.8,0.6-1.2,1.3-1.3c9-1.1,17.8-3.1,26.3-6.1
				C-205.3,443-204.9,443.5-204.3,443.9z"/>
		</g>
		<g>
		</g>
	</g>
</g>
<g>
	<g id="XMLID_2_">
		<g>
			<path class="st1" d="M215.9,449.5c-2,7-3.9,13.6-5.8,20.2c-6.9,23.6-13.9,47.1-20.8,70.7c-1.4,4.8-3.1,9.6-4.5,14.4
				c-0.3,1-0.8,1.3-1.9,1.3c-6.8,0-13.6-0.1-20.4,0c-1.2,0-1.9-0.4-2.2-1.5c-1.6-4.6-3.4-9.1-4.9-13.8c-1.5-4.7-2.8-9.6-4.1-14.4
				c-0.1-0.3-0.2-0.6-0.5-0.9c-0.4,2-0.8,4.1-1.3,6.1c-1.8,7.3-3.7,14.7-5.5,22c-0.3,1-2,2.3-3.2,2.3c-6.8,0-13.7,0-20.5,0
				c-0.9,0-1.3-0.6-1.5-1.3c-1.2-3.3-2.6-6.5-3.6-9.9c-6.2-20.4-12.2-40.8-18.3-61.2c-3.2-10.7-6.6-21.3-9.9-32
				c-0.2-0.7-0.6-1.9-0.3-2.1c0.8-0.6,1.9-1.2,2.9-1.2c3.8-0.1,7.5-0.1,11.3-0.1c2.3,0,4.7,0.1,7,0c1.3-0.1,2,0.4,2.4,1.5
				c1.2,3.1,2.5,6.1,3.4,9.2c2.7,8.9,5.2,17.9,7.7,26.8c2.8,9.8,5.7,19.5,8.5,29.3c0.1,0.4,0.3,0.8,0.7,1.2c0.3-1.1,0.6-2.1,0.9-3.1
				c2.5-8.6,4.9-17.3,7.4-25.9c0.2-0.8,0.2-1.8,0-2.6c-3.3-11.1-6.6-22.1-9.8-33.1c-0.2-0.6-0.5-1.6-0.3-1.8
				c0.7-0.6,1.6-0.9,2.5-1.3c0.2-0.1,0.5,0,0.8,0c12.9,0,25.8,0,38.8,0c2.7,0,3.6,1.2,2.9,3.8c-3.3,11.1-6.5,22.3-9.7,33.4
				c-0.2,0.6-0.2,1.3-0.1,1.8c2.6,9.3,5.3,18.6,8,27.8c0.1,0.3,0.2,0.7,0.4,1.4c0.3-0.8,0.5-1.3,0.6-1.7
				c5.4-19.1,10.9-38.2,16.3-57.3c0.8-2.7,1.7-5.4,2.5-8.1c0.2-0.8,0.6-1.1,1.5-1.1c6.6,0.1,13.1,0,19.7,0.1
				C213.7,448.5,214.7,449.1,215.9,449.5z"/>
			<path class="st0" d="M56.7,553.4c0,1.9,0.7,2.6,2.6,2.6c5.9,0,11.8,0,17.6,0c3.8,0,3.9-0.2,3.9-3.9c0-16.6,0-33.2,0-49.8
				c0-16.8,0-33.6,0-50.4c0-3-0.6-3.5-3.6-3.5c-5.8,0-11.5,0-17.3,0c-2.5,0-3.3,0.8-3.3,3.3c0,12.3,0,24.6,0,36.9
				c0,1.2-0.3,1.5-1.5,1.5c-11.6,0-23.1,0-34.7,0c-1.8,0-1.8,0-1.8-1.9c0-12.4,0-24.7,0-37.1c0-2-0.7-2.8-2.6-2.8
				c-6.6,0-13.1,0-19.7,0c-1.1,0-1.9,0.5-2.2,1.7c-0.1,0.6-0.2,1.2-0.2,1.8c0,33.7,0,67.4,0,101c0,0.4,0,0.8,0,1.2
				c0.1,1.3,0.9,1.9,2.1,1.9c6.8,0,13.6,0,20.4,0c1.3,0,2-0.7,2-2c0-0.5,0-1,0-1.4c0-12,0-24.1,0-36.1c0-1.6,0-1.7,1.6-1.7
				c11.6,0,23.3,0,34.9,0c1.2,0,1.6,0.3,1.6,1.6C56.6,528.7,56.7,541.1,56.7,553.4z M210.1,469.7c1.9-6.6,3.8-13.3,5.8-20.2
				c-1.2-0.4-2.3-1-3.3-1c-6.6-0.1-13.1,0-19.7-0.1c-0.9,0-1.3,0.3-1.5,1.1c-0.8,2.7-1.7,5.4-2.5,8.1c-5.4,19.1-10.9,38.2-16.3,57.3
				c-0.1,0.5-0.3,1-0.6,1.7c-0.2-0.7-0.3-1-0.4-1.4c-2.7-9.3-5.4-18.5-8-27.8c-0.2-0.6-0.1-1.3,0.1-1.8c3.2-11.1,6.5-22.3,9.7-33.4
				c0.8-2.6-0.2-3.8-2.9-3.8c-12.9,0-25.8,0-38.8,0c-0.3,0-0.6-0.1-0.8,0c-0.9,0.4-1.8,0.7-2.5,1.3c-0.2,0.2,0.1,1.2,0.3,1.8
				c3.3,11,6.6,22.1,9.8,33.1c0.2,0.8,0.3,1.8,0,2.6c-2.4,8.7-4.9,17.3-7.4,25.9c-0.3,1-0.6,2.1-0.9,3.1c-0.4-0.4-0.6-0.8-0.7-1.2
				c-2.8-9.8-5.7-19.5-8.5-29.3c-2.6-8.9-5.1-17.9-7.7-26.8c-0.9-3.1-2.2-6.1-3.4-9.2c-0.4-1.1-1.1-1.6-2.4-1.5c-2.3,0.1-4.6,0-7,0
				c-3.8,0-7.5-0.1-11.3,0.1c-1,0-2.1,0.6-2.9,1.2c-0.3,0.2,0.1,1.4,0.3,2.1c3.3,10.7,6.7,21.3,9.9,32c6.2,20.4,12.2,40.8,18.3,61.2
				c1,3.4,2.4,6.6,3.6,9.9c0.3,0.7,0.6,1.3,1.5,1.3c6.8,0,13.7,0,20.5,0c1.2,0,3-1.3,3.2-2.3c1.9-7.3,3.7-14.7,5.5-22
				c0.5-2,0.9-4,1.3-6.1c0.3,0.3,0.4,0.6,0.5,0.9c1.4,4.8,2.6,9.6,4.1,14.4c1.5,4.6,3.2,9.2,4.9,13.8c0.4,1.1,1,1.5,2.2,1.5
				c6.8-0.1,13.6-0.1,20.4,0c1,0,1.6-0.3,1.9-1.3c1.5-4.8,3.1-9.6,4.5-14.4C196.2,516.8,203.1,493.3,210.1,469.7z M217.6,427.2
				c0,54,0,108.1,0,162.2c-75.7,0-151.5,0-227.3,0c0-54,0-108.1,0-162.2C66.1,427.2,141.8,427.2,217.6,427.2z"/>
			<path class="st1" d="M77.2,448.4c3,0,3.6,0.5,3.6,3.5c0,16.8,0,33.6,0,50.4c0,16.6,0,33.2,0,49.8c0,3.7-0.2,3.9-3.9,3.9
				c-5.9,0-11.8,0-17.6,0c-1.9,0-2.6-0.7-2.6-2.6c0-12.4,0-24.7,0-37.1c0-1.2-0.4-1.6-1.6-1.6c-11.6,0-23.3,0-34.9,0
				c-1.5,0-1.6,0-1.6,1.7c0,12,0,24.1,0,36.1c0,0.5,0,1,0,1.4c-0.1,1.3-0.7,2-2,2c-6.8,0-13.6,0-20.4,0c-1.3,0-2-0.7-2.1-1.9
				c-0.1-0.4,0-0.8,0-1.2c0-33.7,0-67.4,0-101c0-0.6,0-1.2,0.2-1.8c0.3-1.1,1.1-1.7,2.2-1.7c6.6,0,13.1,0,19.7,0
				c1.8,0,2.6,0.9,2.6,2.8c0,12.4,0,24.7,0,37.1c0,1.9,0,1.9,1.8,1.9c11.6,0,23.1,0,34.7,0c1.2,0,1.5-0.3,1.5-1.5
				c0-12.3,0-24.6,0-36.9c0-2.5,0.8-3.3,3.3-3.3C65.7,448.4,71.4,448.4,77.2,448.4z"/>
		</g>
		<g>
		</g>
	</g>
</g>
</svg>
