<?xml version="1.0" encoding="utf-8"?>
<!-- Generator: Adobe Illustrator 19.0.0, SVG Export Plug-In . SVG Version: 6.00 Build 0)  -->
<svg version="1.1" id="Layer_1" xmlns="http://www.w3.org/2000/svg" xmlns:xlink="http://www.w3.org/1999/xlink" x="0px" y="0px"
	 viewBox="348 -124.6 751.3 266" enable-background="new 348 -124.6 751.3 266" xml:space="preserve">
<path id="XMLID_12_" fill="#F2781C" d="M1048.2-105.9c-3,12.4-5.9,24.2-8.8,35.9c-10.5,41.9-21.1,83.7-31.5,125.6
	c-2.1,8.5-4.7,17.1-6.8,25.6c-0.5,1.8-1.2,2.3-2.9,2.3c-10.3,0-20.6-0.2-30.9,0c-1.8,0-2.9-0.7-3.3-2.7c-2.4-8.2-5.2-16.2-7.4-24.5
	s-4.2-17.1-6.2-25.6c-0.2-0.5-0.3-1.1-0.8-1.6c-0.6,3.6-1.2,7.3-2,10.8c-2.7,13-5.6,26.1-8.3,39.1c-0.5,1.8-3,4.1-4.8,4.1
	c-10.3,0-20.8,0-31.1,0c-1.4,0-2-1.1-2.3-2.3c-1.8-5.9-3.9-11.6-5.5-17.6c-9.4-36.3-18.5-72.5-27.7-108.8c-4.8-19-10-37.9-15-56.9
	c-0.3-1.2-0.9-3.4-0.5-3.7c1.2-1.1,2.9-2.1,4.4-2.1c5.8-0.2,11.4-0.2,17.1-0.2c3.5,0,7.1,0.2,10.6,0c2-0.2,3,0.7,3.6,2.7
	c1.8,5.5,3.8,10.8,5.2,16.3c4.1,15.8,7.9,31.8,11.7,47.6c4.2,17.4,8.6,34.7,12.9,52.1c0.2,0.7,0.5,1.4,1.1,2.1
	c0.5-2,0.9-3.7,1.4-5.5c3.8-15.3,7.4-30.7,11.2-46c0.3-1.4,0.3-3.2,0-4.6c-5-19.7-10-39.3-14.8-58.8c-0.3-1.1-0.8-2.8-0.5-3.2
	c1.1-1.1,2.4-1.6,3.8-2.3c0.3-0.2,0.8,0,1.2,0c19.5,0,39.1,0,58.8,0c4.1,0,5.5,2.1,4.4,6.8c-5,19.7-9.8,39.6-14.7,59.4
	c-0.3,1.1-0.3,2.3-0.2,3.2c3.9,16.5,8,33.1,12.1,49.4c0.2,0.5,0.3,1.2,0.6,2.5c0.5-1.4,0.8-2.3,0.9-3c8.2-33.9,16.5-67.9,24.7-101.8
	c1.2-4.8,2.6-9.6,3.8-14.4c0.3-1.4,0.9-2,2.3-2c10,0.2,19.8,0,29.8,0.2C1044.9-107.7,1046.4-106.7,1048.2-105.9z"/>
<path id="XMLID_11_" fill="#F2781C" d="M838.1-107.9c4.5,0,5.5,0.9,5.5,6.2c0,29.9,0,59.7,0,89.6c0,29.5,0,59,0,88.5
	c0,6.6-0.3,6.9-5.9,6.9c-8.9,0-17.9,0-26.7,0c-2.9,0-3.9-1.2-3.9-4.6c0-22,0-43.9,0-65.9c0-2.1-0.6-2.8-2.4-2.8
	c-17.6,0-35.3,0-52.9,0c-2.3,0-2.4,0-2.4,3c0,21.3,0,42.8,0,64.2c0,0.9,0,1.8,0,2.5c-0.2,2.3-1.1,3.6-3,3.6c-10.3,0-20.6,0-30.9,0
	c-2,0-3-1.2-3.2-3.4c-0.2-0.7,0-1.4,0-2.1c0-59.9,0-119.8,0-179.5c0-1.1,0-2.1,0.3-3.2c0.5-2,1.7-3,3.3-3c10,0,19.8,0,29.8,0
	c2.7,0,3.9,1.6,3.9,5c0,22,0,43.9,0,65.9c0,3.4,0,3.4,2.7,3.4c17.6,0,35,0,52.6,0c1.8,0,2.3-0.5,2.3-2.7c0-21.9,0-43.7,0-65.6
	c0-4.4,1.2-5.9,5-5.9C820.7-107.9,829.3-107.9,838.1-107.9z"/>
<g id="XMLID_10_">
	<path fill="#FFFFFF" d="M1032.3,98.3c-1,0-2.4-0.4-3.6-2.3c-0.5-0.7-0.9-1.2-1.5-1.8l-0.3-0.3c-2.5-3-1.9-5.1-0.1-7.4
		c0.9-1.2,1.9-2.5,2.8-3.8c2.7-3.5,5.3-6.9,7.6-10.5c11.7-18,20.2-39.9,25.2-64.9c3-15.1,4.5-30.3,4.5-45.3
		c0.2-18.9-2-35.3-6.9-50.2c-2.3-7.4-5.6-14.7-9.6-21.2c-2.1-3.7-0.3-5.9,1-6.9c0.3-0.3,0.6-0.5,0.8-0.8c1.7-1.7,2.9-2.7,4.6-2.7
		c2.2,0,3.3,1.7,5.3,4.7l0.2,0.3c12.2,17.7,21.5,36.5,27.6,55.9l0,0.1c2.4,9,3.9,18.7,4.6,30.8c1.7,31.7-6.9,60.5-26.4,88.1
		c-10.2,14.7-22.4,26.9-32.9,36.8C1034.4,97.9,1033.4,98.3,1032.3,98.3z"/>
	<path d="M1057-117.3c0.9,0,1.7,1.2,3.5,3.9c11.5,16.7,20.9,35,27.3,55.3c2.7,10,3.9,20.1,4.5,30.3c1.8,33.2-8.3,61.5-25.9,86.5
		c-9.5,13.7-20.9,25.4-32.6,36.4c-0.6,0.5-1,0.8-1.5,0.8c-0.5,0-1-0.4-1.5-1.2c-0.6-0.9-1.2-1.6-2-2.3c-1.5-1.8-1.4-2.5,0-4.3
		c3.6-4.8,7.3-9.4,10.6-14.4c12.7-19.5,20.8-41.8,25.6-65.8c3-15.3,4.5-30.6,4.5-45.8c0.2-17.8-1.7-34.7-7-51
		c-2.4-7.6-5.8-15.1-9.8-21.7c-0.9-1.6-0.9-2.7,0.5-3.7C1055.2-116.2,1056.2-117.3,1057-117.3 M1057-122.3L1057-122.3
		c-2.7,0-4.4,1.6-6.3,3.4c-0.2,0.2-0.5,0.5-0.8,0.7c-1.5,1.2-4.7,4.6-1.6,10l0.1,0.1c3.8,6.3,7,13.4,9.3,20.6
		c4.8,14.7,7,30.8,6.8,49.4l0,0.1c0,14.8-1.5,29.9-4.4,44.8c-4.9,24.7-13.3,46.3-24.9,64c-2.3,3.5-4.8,6.8-7.5,10.3
		c-1,1.2-1.9,2.5-2.9,3.8c-1.9,2.5-3.7,6,0.1,10.5l0.5,0.6c0.4,0.4,0.7,0.7,1.1,1.2c1.9,3,4.4,3.5,5.7,3.5c1.7,0,3.4-0.7,4.9-2.1
		l0,0c10.6-10,22.9-22.3,33.3-37.2c19.8-28.1,28.5-57.4,26.8-89.6c-0.7-12.3-2.2-22.2-4.7-31.3l-0.1-0.2
		c-6.2-19.6-15.6-38.7-27.9-56.6l-0.2-0.3C1062.3-119.8,1060.6-122.3,1057-122.3L1057-122.3z"/>
</g>
<g id="XMLID_4_">
	<g>
		<g>
			<path fill="#FFFFFF" d="M679.4,98.6c-2,0-3-1.5-4.6-3.8c-0.2-0.3-0.5-0.7-0.8-1.1c-8.6-12.5-16.2-26.6-23.1-42.9
				c-7-16.9-10-35-9.4-55.5c0.8-25.7,8.7-49.6,24.2-73.1c10.8-16.3,23.8-29.4,35.1-40l0.2-0.1c0.6-0.4,1.1-0.8,1.7-1.1l0.4-0.2
				l3.2,0.7c0.2,0.3,0.5,0.6,0.7,0.8c0.4,0.4,0.9,1,1.3,1.6c3.4,4,3.4,5.3,0.2,9.6l-0.1,0.1c-16.9,20.9-28.3,46.7-34.8,78.9
				c-3.4,16.5-4.8,34-4.2,52c0.7,21.9,4.7,40.4,12.4,56.4c1.1,2.4,2.3,4.8,4,7.4l0.1,0.1c2.1,3.7,0.3,5.9-1.1,6.9
				c-0.5,0.4-0.9,0.8-1.3,1.2C682,97.6,681,98.6,679.4,98.6z"/>
			<path d="M704.3-117.2c0.6,0.8,1.4,1.5,2,2.4c2.7,3.2,2.7,3.2,0.2,6.6c-18.3,22.6-29.2,49.8-35.3,80c-3.5,17.2-4.8,34.8-4.2,52.6
				c0.6,20.1,4.1,39.6,12.6,57.4c1.2,2.7,2.6,5.2,4.1,7.6c0.9,1.6,0.9,2.7-0.5,3.7c-2.1,1.9-3,3-3.8,3c-0.8,0-1.5-1.2-3.3-3.9
				C667,79,659.6,64.8,653.2,49.7c-7.1-17.2-9.8-35.4-9.2-54.4c0.8-27.2,9.8-50.6,23.8-71.8c10-15.1,22.1-27.7,34.7-39.6
				C703-116.5,703.6-116.8,704.3-117.2 M701.8-121.5l-0.4,0.2c-0.6,0.3-1.3,0.7-2,1.3l-0.3,0.3c-11.4,10.8-24.5,24-35.4,40.5
				C647.8-55.3,639.8-30.9,639-4.8c-0.7,20.8,2.5,39.3,9.6,56.5c7,16.6,14.7,30.8,23.4,43.4c0.3,0.4,0.5,0.8,0.8,1.1
				c1.7,2.5,3.3,4.9,6.6,4.9c2.5,0,4.1-1.5,5.8-3c0.3-0.3,0.7-0.7,1.2-1.1c1.5-1.2,4.8-4.5,1.7-10l-0.1-0.2c-1.6-2.5-2.8-4.8-3.8-7
				l-0.1-0.1C676.6,64,672.6,45.9,672,24.3c-0.6-17.8,0.8-35.1,4.1-51.5c6.4-31.8,17.6-57.3,34.3-77.9l0.1-0.2
				c1.6-2.2,2.9-3.9,2.8-6.5c-0.1-2.5-1.4-4.1-3.1-6.1c-0.5-0.7-1-1.3-1.4-1.7c-0.2-0.3-0.4-0.5-0.6-0.6L701.8-121.5L701.8-121.5z"
				/>
		</g>
	</g>
</g>
<g id="XMLID_2_">
	<g>
		<g>
			<path fill="#FFFFFF" d="M567.9,136.5c-1.2,0-2.3,0-3.5-0.1c-7.9-0.3-18.1-1.4-27.6-6.7c-9.1-5.1-14.2-12.5-15.8-22.6
				c-1.1-6.9,0.2-13.6,3.9-20.5c4.5-8.2,11.1-14.4,20.2-19c3-1.5,6.1-2.9,9.2-4.2c1.9-0.8,3.6-1.6,5.4-2.4c-0.3-0.4-0.6-0.9-0.9-1.4
				c-2.6-4.2-3.5-8.3-2.7-12.5c0.4-2.7,1.6-4.7,3.7-6c3.9-2.8,7.8-5.7,11.6-8.5c-7.9-0.6-14.7-3.5-20.1-8.8
				c-4.7-4.6-7.3-10.9-8.1-19.4c-1.2-15.8,2.8-29.6,11.7-41.1c3.5-4.5,7.8-7,12.2-9.4l1.5-0.8c6.7-3.5,13.6-7.1,21.2-8.7
				c2.6-0.5,4.9-0.8,7.2-0.8c4.3,0,8.2,0.9,11.8,2.8c5.4,2.8,11.2,3.4,18.1,3.4c3.7-0.4,7.5-0.7,11.2-1c1.3-0.1,2.6-0.2,3.9-0.3
				c0.4,0,0.7,0,1,0c1.1,0,2.7,0.2,3.9,1.5c1.3,1.5,1.1,3.7,0.8,5.8c-0.2,1-0.4,1.8-0.6,2.7c-0.4,1.8-0.7,3.5-0.9,5.3l0,0.1
				c-0.6,4.1-3.6,4.1-4.9,4.1l-0.2,0c-3.7-0.3-7.3-0.4-11.1-0.6c-0.5,0-1.1,0-1.6-0.1c0.4,1.7,0.7,3.3,1.1,5l0,0.1
				c1.3,9.6-0.1,19.5-4.3,30.3c-4,9.9-10.2,16.8-18.9,21c-2,1-4,2-6,2.9c-2.8,1.4-5.8,2.8-8.7,4.3c-2.6,1.3-4.6,2.7-6,5
				c-1.3,2.1-1.4,3.2-0.4,5.1c0.9,1.6,1.8,2.8,2.7,3.6c2.7,2.3,5.4,4.7,8.1,6.9c2.4,2.1,5,4.2,7.4,6.3l1.4,1.3
				c3.8,3.5,7.7,7.1,11.2,11c10.3,11.2,9.3,27.9,4,38.7c-4.2,9.1-11.2,14.4-16.8,17.9C592.6,133.5,581.2,136.5,567.9,136.5z
				 M568,69.3c-1.5,0.9-2.9,1.8-4.4,2.7c-3.7,2.2-7.2,4.3-10.5,6.9c-6.1,4.9-8.9,11.7-8.9,21.2c-0.2,9.1,5.3,14.5,9.9,17.4
				c4.3,2.8,9,4.2,14.9,4.6c0.9,0.1,1.8,0.1,2.7,0.1c6.1,0,11.2-1.4,15.5-4.3c4.8-3.4,7.7-7.8,8.8-13.3c1.2-6.3-0.4-11.6-4.7-15.4
				c-5.8-5.2-11.9-10.2-17.7-15.1C571.8,72.4,569.9,70.9,568,69.3z M569.6-2.5c0.1,1.1,0.2,2.2,0.2,3.3c0.1,1.2,0.2,2.5,0.3,3.7
				c0.9,8.5,5.8,14,12.4,14h0c1.1,0,2.2-0.1,3.3-0.4l0.1,0c4.2-0.8,7.5-4,10-9.4c5-10.7,6.9-22.6,5.7-35.3
				c-0.9-10.4-7.1-14.1-12.6-14.1c-1.4,0-2.8,0.2-4.1,0.7c-4,1.3-7,4.6-9.7,10.4C571.6-21.5,569.7-12.3,569.6-2.5z"/>
			<path d="M596.9-53.8c3.6,0,7.2,0.7,10.6,2.5c6.2,3.2,12.7,3.7,19.4,3.7c5-0.6,10.1-0.9,15.1-1.3c0.3,0,0.6,0,0.8,0
				c2.3,0,2.7,0.9,2.2,4.3c-0.5,2.7-1.2,5.3-1.5,8.2c-0.3,2-1.1,2-2.4,2c-5-0.4-9.8-0.5-14.8-0.7c-0.3,0-0.8,0-1.2,0.2
				c0.6,2.7,1.2,5.2,1.7,7.8c1.4,10.3-0.6,19.9-4.2,29.1c-3.8,9.4-9.7,15.8-17.7,19.7c-5,2.5-9.8,4.8-14.7,7.3c-2.7,1.4-5.2,3-7,5.9
				c-1.7,2.7-2,4.8-0.5,7.6c0.9,1.6,2,3.2,3.2,4.3c5.2,4.6,10.5,8.9,15.5,13.3c4.2,3.9,8.5,7.8,12.4,12.1
				c9.4,10.3,8.5,25.9,3.6,35.9c-3.6,7.8-9.4,12.8-15.9,16.9c-10.5,6.5-21.8,9-33.6,9c-1.1,0-2.3,0-3.4-0.1
				c-9.1-0.4-18.2-1.8-26.5-6.4c-7.7-4.3-13-10.8-14.5-20.8c-1.1-6.9,0.5-13.2,3.6-19c4.7-8.5,11.4-14,19.1-17.9
				c5-2.5,10.2-4.6,15.1-6.9c0.8-0.4,1.4-0.5,2.3-0.9c-1.1-1.4-2-2.5-2.7-3.7c-2-3.2-3.2-6.8-2.4-10.8c0.3-2,1.1-3.4,2.6-4.4
				c4.5-3.2,9.1-6.6,13.5-10c1.1-0.7,2-1.6,2.9-3c-0.8,0-1.5,0-2.3,0c-0.3,0-0.7,0-1,0c-7.8,0-15.2-2.3-21.3-8.2
				c-4.7-4.6-6.7-10.8-7.3-17.8c-1.1-14.9,2.6-28.3,11.2-39.3c3.2-4.1,7.1-6.4,11.4-8.7c7.1-3.7,14.2-7.6,22-9.2
				C592.4-53.5,594.7-53.8,596.9-53.8 M582.5,21c1.3,0,2.6-0.2,4-0.5c5.4-1.1,9.2-5.2,11.8-10.8c5.3-11.4,7.1-23.8,5.9-36.6
				c-1-11.6-8.2-16.4-15.1-16.4c-1.7,0-3.3,0.3-4.9,0.8c-5.3,1.8-8.6,6.2-11.2,11.7c-3.9,8.9-5.8,18.5-5.9,28.4
				c0.2,2.5,0.3,4.8,0.5,7.1C568.6,14.6,574.7,21,582.5,21 M571.8,124.6c5.8,0,11.6-1.2,16.9-4.7c4.9-3.5,8.5-8.2,9.9-14.9
				c1.4-7.3-0.6-13.5-5.5-17.8c-7.9-7.1-16.1-13.7-24.1-20.4c-0.2-0.2-0.5-0.3-0.9-0.3c-0.2,0-0.5,0-0.6,0.1
				c-5.3,3.4-10.9,6.2-15.9,10.3c-6.4,5.2-9.8,12.4-9.8,23.1c-0.2,8.5,4.1,15.1,11.1,19.5c5,3.2,10.3,4.6,16.1,5
				C569.9,124.6,570.9,124.6,571.8,124.6 M596.9-58.8c-2.4,0-5,0.3-7.7,0.8c-8,1.6-15,5.3-21.8,8.9l-1.5,0.8l0,0
				c-4.7,2.5-9.2,5.1-13,10c-9.3,11.9-13.5,26.3-12.2,42.7l0,0.1c0.8,9.1,3.7,15.9,8.8,20.9c4.4,4.3,9.7,7.2,15.6,8.6
				c-2.2,1.6-4.5,3.3-6.8,4.9c-2.6,1.7-4.2,4.3-4.7,7.6c-0.8,4.4,0,8.8,2.4,13.2c-0.9,0.4-1.8,0.8-2.8,1.2c-3,1.3-6.2,2.7-9.2,4.3
				c-9.5,4.8-16.5,11.4-21.2,20l0,0.1c-3.9,7.3-5.3,14.8-4.1,22.1c1.6,10.8,7.3,19,17,24.4c10,5.6,20.6,6.7,28.7,7
				c1.2,0,2.4,0.1,3.6,0.1c13.8,0,25.7-3.2,36.2-9.7c5.9-3.7,13.3-9.3,17.8-19c5.6-11.5,6.6-29.3-4.4-41.4c-3.6-4-7.5-7.6-11.3-11.1
				l-1.3-1.3l-0.1-0.1c-2.4-2.1-5-4.3-7.4-6.4c-2.6-2.2-5.4-4.5-8-6.9c-0.4-0.4-1.2-1.2-2.2-3c-0.5-0.9-0.6-1.1,0.3-2.5
				c1.1-1.8,2.8-2.9,5.1-4.1c2.9-1.5,5.7-2.8,8.6-4.3c2-1,4-1.9,6-3c9.2-4.5,15.9-12,20.1-22.3l0-0.1c4.4-11.2,5.9-21.6,4.5-31.6
				l0-0.3c-0.1-0.6-0.2-1.3-0.4-1.9c3.2,0.1,6.2,0.2,9.4,0.5l0.4,0c5.3,0,6.9-3.4,7.3-6.3l0-0.2c0.2-1.7,0.5-3.3,0.9-5.1
				c0.2-0.9,0.4-1.8,0.6-2.7l0-0.1c0.3-1.8,0.8-5.2-1.4-7.8c-1.3-1.6-3.3-2.3-5.8-2.3c-0.4,0-0.7,0-1.2,0l-0.1,0
				c-1.3,0.1-2.6,0.2-3.9,0.3c-3.6,0.3-7.4,0.6-11.1,1c-6.5,0-11.8-0.6-16.8-3.1C605.9-57.7,601.6-58.8,596.9-58.8L596.9-58.8z
				 M577.5-28.8c2.4-5.1,5-7.9,8.3-9c1-0.4,2.1-0.5,3.3-0.5c5.7,0,9.5,4.4,10.1,11.8l0,0.1c1.2,12.3-0.7,23.8-5.5,34
				c-2.2,4.7-4.9,7.3-8.3,8l-0.2,0.1c-0.9,0.2-1.9,0.4-2.7,0.4c-5.3,0-9.2-4.6-9.9-11.8c-0.1-1.2-0.2-2.3-0.3-3.6
				c-0.1-1.1-0.1-2.1-0.2-3.2C572.2-12,574.1-20.8,577.5-28.8L577.5-28.8z M569.3,119.6c-5.5-0.4-9.8-1.7-13.7-4.2
				c-6-3.8-8.9-8.9-8.8-15.2l0-0.1c0-8.8,2.5-14.8,8-19.2c3.1-2.6,6.5-4.6,10.2-6.7c0.9-0.6,1.9-1.1,2.9-1.7
				c1.4,1.2,2.9,2.4,4.3,3.6c5.8,4.8,11.9,9.8,17.6,15l0,0c3.6,3.2,4.9,7.6,3.9,13.1c-1,4.9-3.5,8.7-7.8,11.8
				c-3.9,2.6-8.3,3.8-14,3.8C571,119.6,570.2,119.6,569.3,119.6L569.3,119.6z"/>
		</g>
	</g>
</g>
<g id="XMLID_1_">
	<g>
		<g>
			<path fill="#FFFFFF" d="M458.6,72.3c-3.9,0-7.8-0.5-11.6-1.5C435.5,68,428.1,59.3,425.1,45c-1.7-7.7-1.9-16-0.8-26.2
				c1.1-9.1,2.4-18.8,5.4-28c4.4-14.2,12.7-25.9,24.8-34.6c11.5-8.5,23-12.6,35-12.6c0.9,0,1.8,0,2.8,0.1c10.4,0.6,18.8,4.9,25,12.8
				c4.3,4.9,6.7,11.5,7.6,20.7c0.2,1.7,0.3,3.3,0.3,4.9c0.1,1.1,0.1,2.2,0.2,3.1l0,0.3c-0.7,19.4-4.4,36-11.3,50.6
				c-3.2,6.6-7.1,11.8-12.1,15.9c-6.8,5.9-15.1,12.5-24.4,16.6C471.2,71,464.9,72.3,458.6,72.3z M453,30c0.1,0.8,0.2,1.7,0.3,2.8
				c0.2,2.4,0.4,5.2,0.9,7.9c1.4,7.2,4.5,11.5,9.4,13.1c2.1,0.7,4,1,5.9,1c0,0,0,0,0,0c4.2,0,7.6-1.7,10.5-5.2l0.1-0.1
				c1.7-1.8,3.5-4.7,5.3-8.9c7.6-19.1,10.9-40.1,9.8-62.5c-0.3-5.8-1.7-10.2-4.2-13.5c-2.9-3.7-6.8-5.7-11.1-5.7
				c-3.3,0-6.6,1.3-9.4,3.6c-3.4,2.9-6.2,7.3-8.1,13.1C456.8-8.2,453.7,9.6,453,30z"/>
			<path d="M489.5-54c0.9,0,1.7,0,2.6,0.1c8.9,0.5,17,3.9,23.2,11.9c4.5,5.1,6.3,11.9,7,19.3c0.3,2.8,0.3,5.7,0.5,8
				c-0.6,17.9-3.8,34.3-11.1,49.6c-2.9,6-6.5,11-11.4,15.1c-7.4,6.4-15.1,12.4-23.8,16.2c-5.9,2.4-11.9,3.7-17.9,3.7
				c-3.6,0-7.3-0.5-11-1.4c-11.1-2.8-17.4-11.4-20.1-24c-1.8-8.4-1.7-16.9-0.8-25.4c1.1-9.4,2.4-18.7,5.3-27.5
				c4.5-14.6,12.9-25.4,23.9-33.4C466.3-49.5,477.3-54,489.5-54 M469.5,57.3c4.6,0,8.8-1.8,12.4-6.1c2.3-2.4,4.2-6,5.8-9.6
				c8-20.1,11.1-41.4,10-63.6c-0.3-5.3-1.5-10.7-4.7-14.9c-3.5-4.5-8.2-6.7-13.1-6.7c-3.8,0-7.7,1.4-11,4.2c-4.2,3.6-7,8.7-8.9,14.2
				c-5.9,17.2-8.8,35.2-9.5,55.3c0.3,2.7,0.5,6.9,1.2,11c1.4,7.3,4.7,13,11.1,15.1C465.1,56.9,467.3,57.3,469.5,57.3 M489.5-59v5
				V-59L489.5-59c-12.6,0-24.6,4.3-36.5,13.1c-12.5,9.1-21.1,21.2-25.7,35.9c-3.1,9.5-4.4,19.2-5.5,28.4l0,0.1
				c-1.1,10.4-0.8,19,0.9,27c3.3,15.3,11.3,24.6,23.8,27.8c4,1,8.1,1.6,12.2,1.6c6.7,0,13.3-1.4,19.9-4.1l0.1,0
				c9.6-4.2,18.1-10.9,25-17c5.2-4.3,9.3-9.8,12.7-16.7c7.1-15,10.9-31.8,11.6-51.6l0-0.6c-0.1-0.9-0.1-1.9-0.2-3
				c-0.1-1.6-0.1-3.3-0.3-5.1c-0.9-9.7-3.5-16.7-8.1-22c-6.6-8.5-15.6-13.1-26.8-13.7C491.4-59,490.4-59,489.5-59L489.5-59z
				 M455.5,29.9c0.7-20,3.7-37.5,9.2-53.5c1.8-5.3,4.3-9.4,7.4-12c2.3-2,5-3,7.8-3c3.5,0,6.7,1.7,9.1,4.8c2.1,2.8,3.4,6.9,3.7,12.1
				c1.1,21.9-2.1,42.6-9.6,61.4c-1.7,3.9-3.3,6.5-4.8,8.1L478,48c-2.4,2.9-5.2,4.3-8.6,4.3c-1.6,0-3.3-0.3-5.1-0.9
				c-1.5-0.5-5.9-2-7.7-11.2c-0.4-2.6-0.7-5.3-0.9-7.6C455.7,31.6,455.6,30.7,455.5,29.9L455.5,29.9z"/>
		</g>
	</g>
</g>
<g id="XMLID_3_">
	<path fill="#FFFFFF" d="M367.4,71.7c-3.2,0-8.8-1.5-10.1-11.8c-0.1-0.7-0.2-1.5-0.3-2.3c-0.1-0.7-0.1-1.4-0.2-2.1l0.3,0l-0.6-0.7
		c0.4-3.1,0.8-6.3,1.2-9.3c0.7-5.4,1.3-11,2.3-16.4c3-16.9,6.2-34.1,9.3-50.6c2.9-15.7,5.9-31.8,8.7-47.8c1.4-7.4,2.4-15.2,3.2-22.1
		c0.2-1.7,0.1-2.9-0.4-3.5c-0.4-0.4-1.1-0.7-2.1-0.8c-3.4-0.4-6.8-0.4-10.1-0.4c-1.6,0-2.8-0.5-3.6-1.4c-1.2-1.5-0.9-3.4-0.8-4
		l0-0.1c0.2-0.7,0.2-1.4,0.2-2.2l0-0.4c0.3-2.4,1.8-4,4-4.4c14-2.1,27.2-5.6,39.3-10.7c0.6-0.3,1.2-0.4,1.8-0.4
		c1.6,0,2.6,0.9,3.2,1.4c0.1,0.1,0.2,0.2,0.3,0.3c2.1,1.6,1.9,3.8,1.8,4.9l0,0.3c-3.7,18.8-8,41-12.1,62.7
		c-5.1,27.3-10,54.6-13.6,75.3c-0.9,5.2-1.7,10.6-2.4,16.1c-0.2,1.7-0.3,3.5,0.4,4.1c0.2,0.1,0.2,0.1,0.3,0.1c0.4,0,1.4-0.6,2.1-1.1
		c3.8-2.6,7.8-5.5,11.6-8.4c0.8-0.6,1.8-1.3,3.1-1.3c2.3,0,3.4,2.1,3.7,2.8l0.1,0.3c2.4,4.9,2.1,6.3-2.2,9.6l-2.9,2.3
		c-6.4,5.1-12.9,10.3-19.6,15.1c-3.5,2.5-7.5,4.6-11.3,5.8C370.4,71.4,368.9,71.7,367.4,71.7z"/>
	<path d="M409.5-117c0.8,0,1.4,0.7,2,1.2c0.9,0.7,0.9,1.6,0.8,2.7c-4.1,20.8-8.2,41.8-12.1,62.7c-4.7,25.1-9.2,50.3-13.6,75.3
		c-0.9,5.3-1.7,10.7-2.4,16.2c-0.3,2.3-0.5,5,1.4,6.4c0.6,0.5,1.2,0.6,1.7,0.6c1.2,0,2.4-0.8,3.6-1.5c3.9-2.7,7.9-5.5,11.7-8.5
		c0.6-0.5,1.1-0.8,1.5-0.8c0.5,0,1,0.4,1.5,1.5c2,4.1,2.1,4.1-1.4,6.8c-7.4,5.9-14.8,11.9-22.4,17.4c-3.2,2.3-7,4.3-10.6,5.5
		c-1.4,0.5-2.7,0.7-3.9,0.7c-4.3,0-6.8-3.3-7.6-9.6c-0.2-1.4-0.3-3-0.5-4.4c-0.2,0-0.2,0-0.3,0c1.2-8.5,2-17.2,3.5-25.6
		c5.9-32.9,12.1-65.6,18-98.4c1.4-7.3,2.3-14.7,3.2-22.2c0.6-4.6-1.1-6.8-4.8-7.1c-3.5-0.4-7-0.4-10.3-0.4c-1.7,0-2.3-0.7-2-2.5
		c0.2-0.9,0.3-1.8,0.3-2.7c0.2-1.4,0.9-2.1,2-2.3c13.6-2,27-5.5,39.8-10.8C409-117,409.3-117,409.5-117 M409.5-122L409.5-122
		c-0.9,0-1.9,0.2-2.8,0.6c-11.9,4.9-24.9,8.4-38.6,10.5l-0.2,0c-3.3,0.6-5.6,3-6.1,6.5l-0.1,0.7c0,0.5-0.1,1.1-0.2,1.6l-0.1,0.3
		c-0.4,2.4,0.1,4.4,1.4,6c0.9,1.1,2.6,2.3,5.5,2.3c3.2,0,6.5,0,9.7,0.4l0.2,0c0.1,0,0.2,0,0.3,0c0,0.3,0,0.7-0.1,1.4l0,0.1
		c-0.8,6.8-1.7,14.6-3.1,21.9l0,0.1c-2.9,15.9-5.9,32.1-8.7,47.8c-3.1,16.6-6.2,33.7-9.3,50.6c-1,5.5-1.7,11.1-2.3,16.5
		c-0.4,3.1-0.8,6.2-1.2,9.3l1.1,1.3l-0.8,0.1c0.1,0.6,0.2,1.3,0.2,2c0.1,0.8,0.2,1.6,0.3,2.4c1.6,12.6,9.3,14,12.6,14
		c1.7,0,3.6-0.3,5.5-1c4-1.3,8.2-3.5,11.9-6.2c6.7-4.9,13.3-10.1,19.7-15.2l2.9-2.3c2.1-1.6,4-3.1,4.5-5.7c0.6-2.5-0.4-4.5-1.6-7
		l-0.1-0.2c-1.8-3.5-4.2-4.3-6-4.3c-2,0-3.6,1-4.6,1.8c-3.3,2.6-6.9,5.2-10.3,7.6c0.7-5.4,1.5-10.8,2.4-16
		c3.6-20.6,8.5-47.9,13.6-75.2c4-21.7,8.4-43.9,12.1-62.7l0.1-0.5c0.1-1.2,0.4-4.7-2.7-7.1c-0.1-0.1-0.2-0.1-0.2-0.2
		C413.7-120.7,412.1-122,409.5-122L409.5-122z"/>
</g>
</svg>
