<?xml version="1.0" encoding="utf-8"?>
<!-- Generator: Adobe Illustrator 19.0.0, SVG Export Plug-In . SVG Version: 6.00 Build 0)  -->
<svg version="1.1" id="Layer_1" xmlns="http://www.w3.org/2000/svg" xmlns:xlink="http://www.w3.org/1999/xlink" x="0px" y="0px"
	 viewBox="0 48.7 733.5 251.3" style="enable-background:new 0 48.7 733.5 251.3;" xml:space="preserve">
<style type="text/css">
	.st0{fill:#F2781C;}
	.st1{fill:#FFFFFF;}
</style>
<path id="XMLID_12_" class="st0" d="M689.2,60.1c-3,12.4-5.9,24.2-8.8,35.9c-10.5,41.9-21.1,83.7-31.5,125.6
	c-2.1,8.5-4.7,17.1-6.8,25.6c-0.5,1.8-1.2,2.3-2.9,2.3c-10.3,0-20.6-0.2-30.9,0c-1.8,0-2.9-0.7-3.3-2.7c-2.4-8.2-5.2-16.2-7.4-24.5
	s-4.2-17.1-6.2-25.6c-0.2-0.5-0.3-1.1-0.8-1.6c-0.6,3.6-1.2,7.3-2,10.8c-2.7,13-5.6,26.1-8.3,39.1c-0.5,1.8-3,4.1-4.8,4.1
	c-10.3,0-20.8,0-31.1,0c-1.4,0-2-1.1-2.3-2.3c-1.8-5.9-3.9-11.6-5.5-17.6c-9.4-36.3-18.5-72.5-27.7-108.8c-4.8-19-10-37.9-15-56.9
	c-0.3-1.2-0.9-3.4-0.5-3.7c1.2-1.1,2.9-2.1,4.4-2.1c5.8-0.2,11.4-0.2,17.1-0.2c3.5,0,7.1,0.2,10.6,0c2-0.2,3,0.7,3.6,2.7
	c1.8,5.5,3.8,10.8,5.2,16.3c4.1,15.8,7.9,31.8,11.7,47.6c4.2,17.4,8.6,34.7,12.9,52.1c0.2,0.7,0.5,1.4,1.1,2.1
	c0.5-2,0.9-3.7,1.4-5.5c3.8-15.3,7.4-30.7,11.2-46c0.3-1.4,0.3-3.2,0-4.6c-5-19.7-10-39.3-14.8-58.8c-0.3-1.1-0.8-2.8-0.5-3.2
	c1.1-1.1,2.4-1.6,3.8-2.3c0.3-0.2,0.8,0,1.2,0c19.5,0,39.1,0,58.8,0c4.1,0,5.5,2.1,4.4,6.8c-5,19.7-9.8,39.6-14.7,59.4
	c-0.3,1.1-0.3,2.3-0.2,3.2c3.9,16.5,8,33.1,12.1,49.4c0.2,0.5,0.3,1.2,0.6,2.5c0.5-1.4,0.8-2.3,0.9-3c8.2-33.9,16.5-67.9,24.7-101.8
	c1.2-4.8,2.6-9.6,3.8-14.4c0.3-1.4,0.9-2,2.3-2c10,0.2,19.8,0,29.8,0.2C685.9,58.3,687.4,59.3,689.2,60.1z"/>
<path id="XMLID_11_" class="st0" d="M479.1,58.1c4.5,0,5.5,0.9,5.5,6.2c0,29.9,0,59.7,0,89.6c0,29.5,0,59,0,88.5
	c0,6.6-0.3,6.9-5.9,6.9c-8.9,0-17.9,0-26.7,0c-2.9,0-3.9-1.2-3.9-4.6c0-22,0-43.9,0-65.9c0-2.1-0.6-2.8-2.4-2.8
	c-17.6,0-35.3,0-52.9,0c-2.3,0-2.4,0-2.4,3c0,21.3,0,42.8,0,64.2c0,0.9,0,1.8,0,2.5c-0.2,2.3-1.1,3.6-3,3.6c-10.3,0-20.6,0-30.9,0
	c-2,0-3-1.2-3.2-3.4c-0.2-0.7,0-1.4,0-2.1c0-59.9,0-119.8,0-179.5c0-1.1,0-2.1,0.3-3.2c0.5-2,1.7-3,3.3-3c10,0,19.8,0,29.8,0
	c2.7,0,3.9,1.6,3.9,5c0,22,0,43.9,0,65.9c0,3.4,0,3.4,2.7,3.4c17.6,0,35,0,52.6,0c1.8,0,2.3-0.5,2.3-2.7c0-21.9,0-43.7,0-65.6
	c0-4.4,1.2-5.9,5-5.9C461.7,58.1,470.3,58.1,479.1,58.1z"/>
<path id="XMLID_10_" class="st1" d="M733.3,138.1c1.8,33.2-8.3,61.5-25.9,86.5c-9.5,13.7-20.9,25.4-32.6,36.4
	c-1.2,1.1-2.1,1.1-3-0.4c-0.6-0.9-1.2-1.6-2-2.3c-1.5-1.8-1.4-2.5,0-4.3c3.6-4.8,7.3-9.4,10.6-14.4c12.7-19.5,20.8-41.8,25.6-65.8
	c3-15.3,4.5-30.6,4.5-45.8c0.2-17.8-1.7-34.7-7-51c-2.4-7.6-5.8-15.1-9.8-21.7c-0.9-1.6-0.9-2.7,0.5-3.7c4.2-3.9,3.8-4.3,7.3,0.9
	c11.5,16.7,20.9,35,27.3,55.3C731.5,117.8,732.7,127.9,733.3,138.1z"/>
<g id="XMLID_4_">
	<g>
		<path class="st1" d="M347.3,51.2c2.7,3.2,2.7,3.2,0.2,6.6c-18.3,22.6-29.2,49.8-35.3,80c-3.5,17.2-4.8,34.8-4.2,52.6
			c0.6,20.1,4.1,39.6,12.6,57.4c1.2,2.7,2.6,5.2,4.1,7.6c0.9,1.6,0.9,2.7-0.5,3.7c-4.4,3.9-3.5,4.3-7.1-0.9
			c-9.1-13.2-16.5-27.4-22.9-42.5c-7.1-17.2-9.8-35.4-9.2-54.4c0.8-27.2,9.8-50.6,23.8-71.8c10-15.1,22.1-27.7,34.7-39.6
			c0.5-0.4,1.1-0.7,1.8-1.1C345.9,49.6,346.7,50.3,347.3,51.2z"/>
	</g>
</g>
<g id="XMLID_2_">
	<g>
		<path class="st1" d="M283,117.1c3-0.2,3.6,0.5,3,4.3c-0.5,2.7-1.2,5.3-1.5,8.2c-0.3,2-1.1,2-2.4,2c-5-0.4-9.8-0.5-14.8-0.7
			c-0.3,0-0.8,0-1.2,0.2c0.6,2.7,1.2,5.2,1.7,7.8c1.4,10.3-0.6,19.9-4.2,29.1c-3.8,9.4-9.7,15.8-17.7,19.7c-5,2.5-9.8,4.8-14.7,7.3
			c-2.7,1.4-5.2,3-7,5.9c-1.7,2.7-2,4.8-0.5,7.6c0.9,1.6,2,3.2,3.2,4.3c5.2,4.6,10.5,8.9,15.5,13.3c4.2,3.9,8.5,7.8,12.4,12.1
			c9.4,10.3,8.5,25.9,3.6,35.9c-3.6,7.8-9.4,12.8-15.9,16.9c-11.5,7.1-23.9,9.4-37,8.9c-9.1-0.4-18.2-1.8-26.5-6.4
			c-7.7-4.3-13-10.8-14.5-20.8c-1.1-6.9,0.5-13.2,3.6-19c4.7-8.5,11.4-14,19.1-17.9c5-2.5,10.2-4.6,15.1-6.9
			c0.8-0.4,1.4-0.5,2.3-0.9c-1.1-1.4-2-2.5-2.7-3.7c-2-3.2-3.2-6.8-2.4-10.8c0.3-2,1.1-3.4,2.6-4.4c4.5-3.2,9.1-6.6,13.5-10
			c1.1-0.7,2-1.6,2.9-3c-0.8,0-1.5,0-2.3,0c-8.2,0.2-15.9-2-22.3-8.2c-4.7-4.6-6.7-10.8-7.3-17.8c-1.1-14.9,2.6-28.3,11.2-39.3
			c3.2-4.1,7.1-6.4,11.4-8.7c7.1-3.7,14.2-7.6,22-9.2c5.9-1.2,11.8-1.1,17.3,1.8c6.2,3.2,12.7,3.7,19.4,3.7
			C272.9,117.8,278,117.5,283,117.1z M239.3,175.6c5.3-11.4,7.1-23.8,5.9-36.6c-1.2-14.4-12-18.3-20-15.6
			c-5.3,1.8-8.6,6.2-11.2,11.7c-3.9,8.9-5.8,18.5-5.9,28.4c0.2,2.5,0.3,4.8,0.5,7.1c1.2,11.6,9.2,18.3,18.9,15.8
			C232.9,185.3,236.7,181.2,239.3,175.6z M239.6,271c1.4-7.3-0.6-13.5-5.5-17.8c-7.9-7.1-16.1-13.7-24.1-20.4
			c-0.3-0.4-1.1-0.4-1.5-0.2c-5.3,3.4-10.9,6.2-15.9,10.3c-6.4,5.2-9.8,12.4-9.8,23.1c-0.2,8.5,4.1,15.1,11.1,19.5
			c5,3.2,10.3,4.6,16.1,5c6.8,0.4,13.6-0.5,19.7-4.6C234.6,282.4,238.2,277.7,239.6,271z"/>
	</g>
</g>
<g id="XMLID_1_">
	<g>
		<path class="st1" d="M163.3,143.2c0.3,2.8,0.3,5.7,0.5,8c-0.6,17.9-3.8,34.3-11.1,49.6c-2.9,6-6.5,11-11.4,15.1
			c-7.4,6.4-15.1,12.4-23.8,16.2c-9.4,3.9-19.2,4.8-28.9,2.3c-11.1-2.8-17.4-11.4-20.1-24c-1.8-8.4-1.7-16.9-0.8-25.4
			c1.1-9.4,2.4-18.7,5.3-27.5c4.5-14.6,12.9-25.4,23.9-33.4c11.1-8.2,23-12.8,36.2-12.1c8.9,0.5,17,3.9,23.2,11.9
			C160.8,129,162.6,135.8,163.3,143.2z M128.7,207.5c8-20.1,11.1-41.4,10-63.6c-0.3-5.3-1.5-10.7-4.7-14.9c-6.2-8-16.5-8.9-24.1-2.5
			c-4.2,3.6-7,8.7-8.9,14.2c-5.9,17.2-8.8,35.2-9.5,55.3c0.3,2.7,0.5,6.9,1.2,11c1.4,7.3,4.7,13,11.1,15.1c7,2.3,13.8,1.4,19.1-5
			C125.2,214.7,127.1,211.1,128.7,207.5z"/>
	</g>
</g>
<path id="XMLID_3_" class="st1" d="M52.6,50.1c0.9,0.7,0.9,1.6,0.8,2.7c-4.1,20.8-8.2,41.8-12.1,62.7c-4.7,25.1-9.2,50.3-13.6,75.3
	c-0.9,5.3-1.7,10.7-2.4,16.2c-0.3,2.3-0.5,5,1.4,6.4c1.8,1.4,3.6,0.2,5.3-0.9c3.9-2.7,7.9-5.5,11.7-8.5c1.4-1.1,2.1-1.1,3,0.7
	c2,4.1,2.1,4.1-1.4,6.8c-7.4,5.9-14.8,11.9-22.4,17.4c-3.2,2.3-7,4.3-10.6,5.5c-6.7,2.3-10.5-0.9-11.5-8.9c-0.2-1.4-0.3-3-0.5-4.4
	c-0.2,0-0.2,0-0.3,0c1.2-8.5,2-17.2,3.5-25.6c5.9-32.9,12.1-65.6,18-98.4c1.4-7.3,2.3-14.7,3.2-22.2c0.6-4.6-1.1-6.8-4.8-7.1
	c-3.5-0.4-7-0.4-10.3-0.4c-1.7,0-2.3-0.7-2-2.5c0.2-0.9,0.3-1.8,0.3-2.7c0.2-1.4,0.9-2.1,2-2.3c13.6-2,27-5.5,39.8-10.8
	C51.1,48.5,51.7,49.4,52.6,50.1z"/>
</svg>
